Coordinates
version=1
nRows=19
nColumns=33
inDegrees=yes

Units are S.I. units (second, meters, Newtons, ...)
Angles are in degrees.

endheader
time	ground_thorax_rot_x	ground_thorax_rot_y	ground_thorax_rot_z	ground_thorax_tx	ground_thorax_ty	ground_thorax_tz	clav_prot_r	clav_elev_r	scapula_abduction_r	scapula_elevation_r	scapula_upward_rot_r	scapula_winging_r	shoulder_elv_r	plane_of_elev_r	axial_rot_r	elbow_flexion_r	pro_sup_r	wrist_flex_r	wrist_dev_r	clav_prot_l	clav_elev_l	scapula_abduction_l	scapula_elevation_l	scapula_upward_rot_l	scapula_winging_l	shoulder_elv_l	plane_of_elev_l	axial_rot_l	elbow_flexion_l	pro_sup_l	wrist_flex_l	wrist_dev_l
      9.64000000	    -36.35648509	    -11.63945925	     21.30517599	    -46.30684805	    789.26389938	    -40.49696749	     23.95971494	    -45.00000000	     34.17236238	    -45.00000000	    -45.00000000	  -2615.88907022	   -465.68864919	    159.75132784	     29.84452095	    360.62453504	    172.19473079	     13.14838406	     14.14610681	      2.13664011	     28.05368122	    -26.57833458	    -45.00000000	    -45.00000000	  -4245.62118405	  -1345.72639813	     17.18171045	   -179.99999979	      1.57993894	    186.55021931	     12.07255799	    -15.33949732
      9.65000000	    -36.43219534	    -11.31963173	     20.78890498	    -48.59569912	    791.09760848	    -40.44379969	     23.77934007	    -45.00000000	     34.25248214	    -45.00000000	    -45.00000000	  -2615.95774267	   -465.66409911	    159.73515563	     29.43791490	    360.49497356	    171.65422866	     13.22661009	     14.15519339	      2.18452246	     28.04409286	    -26.67265522	    -45.00000000	    -45.00000000	  -4245.59850992	  -1345.63723581	     17.15329377	   -179.99999979	      1.32353783	    186.29210722	     12.00695746	    -15.51227117
      9.66000000	    -36.47024553	    -11.24013040	     20.58336643	    -50.79293305	    792.97451543	    -40.38907257	     23.92110246	    -45.00000000	     34.11156294	    -45.00000000	    -45.00000000	  -2616.09234548	   -465.61882977	    159.61478388	     28.99640819	    360.62374979	    170.97113217	     13.14110724	     14.26726941	      2.01970191	     28.12677943	    -26.63584855	    -45.00000000	    -45.00000000	  -4245.38837518	  -1345.50807921	     17.34592804	   -179.99999979	      1.35174512	    186.04800784	     12.07267883	    -15.55667706
      9.67000000	    -36.59255733	    -10.95546469	     20.06496733	    -52.89760320	    794.88923154	    -40.33315745	     23.84993453	    -45.00000000	     34.09921224	    -45.00000000	    -45.00000000	  -2616.14503379	   -465.59455441	    159.53735893	     28.71987314	    360.44079239	    170.22291590	     13.17187016	     14.33075550	      2.07246119	     28.15788433	    -26.69254728	    -45.00000000	    -45.00000000	  -4245.30709687	  -1345.35561591	     17.38383899	   -179.99999979	      1.15362131	    185.70154343	     12.02830835	    -15.67536162
      9.68000000	    -36.67400582	    -10.74580726	     19.66095701	    -54.91066177	    796.83630950	    -40.27693967	     23.79364266	    -45.00000000	     34.09614312	    -45.00000000	    -45.00000000	  -2616.22214812	   -465.58000179	    159.43976656	     28.29911781	    360.43259522	    169.43566625	     13.14860745	     14.38876907	      2.03492996	     28.19046767	    -26.74788278	    -45.00000000	    -45.00000000	  -4245.19587491	  -1345.21657718	     17.44336684	   -179.99999979	      1.05619684	    185.32661021	     12.00116679	    -15.76831465
      9.69000000	    -36.74930143	    -10.56262248	     19.30158377	    -56.83296173	    798.80785757	    -40.22130738	     23.76171345	    -45.00000000	     34.08951321	    -45.00000000	    -45.00000000	  -2616.31070755	   -465.54788514	    159.38765210	     27.94473606	    360.36722478	    168.60657517	     13.12265116	     14.45773549	      2.02288638	     28.24105720	    -26.77965849	    -45.00000000	    -45.00000000	  -4245.08912211	  -1345.08754864	     17.51388843	   -179.99999979	      0.90852857	    184.89462969	     11.97341219	    -15.86231270
      9.70000000	    -36.83542793	    -10.35578089	     18.87315994	    -58.66541989	    800.79609582	    -40.16724351	     23.69068562	    -45.00000000	     34.11694736	    -45.00000000	    -45.00000000	  -2616.37595349	   -465.52578107	    159.30918704	     27.55387409	    360.27856605	    167.72999290	     13.10435056	     14.51305066	      2.03322834	     28.26698345	    -26.84556575	    -45.00000000	    -45.00000000	  -4245.00073652	  -1344.98142896	     17.54851849	   -179.99999979	      0.75239884	    184.41829944	     11.92274041	    -15.96250317
      9.71000000	    -36.88279101	    -10.23048490	     18.62312293	    -60.41055423	    802.79583381	    -40.11526193	     23.68954963	    -45.00000000	     34.05973346	    -45.00000000	    -45.00000000	  -2616.50673463	   -465.52859137	    159.20689887	     27.12775383	    360.28378271	    166.80756435	     13.05248251	     14.58397224	      1.93965883	     28.33036472	    -26.86154761	    -45.00000000	    -45.00000000	  -4244.84261637	  -1344.86604822	     17.69876029	   -179.99999979	      0.72701774	    183.90422237	     11.93220452	    -16.01406384
      9.72000000	    -36.95786795	    -10.07547156	     18.27509589	    -62.06791473	    804.80016122	    -40.06567776	     23.62473144	    -45.00000000	     34.07120229	    -45.00000000	    -45.00000000	  -2616.59287494	   -465.51621450	    159.14424790	     26.77680174	    360.18188204	    165.87765236	     13.02504474	     14.64202101	      1.93702020	     28.36810005	    -26.91868160	    -45.00000000	    -45.00000000	  -4244.73199427	  -1344.77226879	     17.75782887	   -179.99999979	      0.63144286	    183.30287906	     11.90795843	    -16.07096281
      9.73000000	    -37.01283332	     -9.88176387	     17.90755080	    -63.63861221	    806.80496071	    -40.01822326	     23.51088046	    -45.00000000	     34.05397293	    -45.00000000	    -45.00000000	  -2616.62461788	   -465.43507398	    159.12711058	     26.39798318	    360.03355010	    165.00489361	     13.01645262	     14.64642767	      2.06223315	     28.37197837	    -27.00443626	    -45.00000000	    -45.00000000	  -4244.74635410	  -1344.69796771	     17.63495273	   -179.99999979	      0.39125423	    182.66015860	     11.78622282	    -16.16533101
      9.74000000	    -37.07474526	     -9.77500872	     17.62981267	    -65.12340701	    808.80632334	    -39.97245706	     23.50852636	    -45.00000000	     34.02971826	    -45.00000000	    -45.00000000	  -2616.73866600	   -465.42863574	    158.98614013	     25.97934583	    360.06353101	    164.13178743	     12.96117921	     14.70820713	      1.94383503	     28.43689111	    -27.03742300	    -45.00000000	    -45.00000000	  -4244.55831199	  -1344.53346490	     17.85601452	   -179.99999979	      0.41338080	    181.99932633	     11.80958212	    -16.17552774
      9.75000000	    -37.09114823	     -9.62588171	     17.32459356	    -66.52395059	    810.80090527	    -39.92751892	     23.32107380	    -45.00000000	     34.07642274	    -45.00000000	    -45.00000000	  -2616.66963024	   -465.26946492	    159.11519051	     25.69915396	    359.86700030	    163.36626143	     12.95080901	     14.65608934	      2.24696411	     28.39893879	    -27.20342303	    -45.00000000	    -45.00000000	  -4244.80072259	  -1344.50957435	     17.37180133	   -179.99999979	      0.11495516	    181.29909751	     11.57615642	    -16.25367024
      9.76000000	    -37.20783610	     -9.52077153	     16.97575178	    -67.84250842	    812.78563293	    -39.88288874	     23.40167398	    -45.00000000	     34.07290080	    -45.00000000	    -45.00000000	  -2616.85447610	   -465.41699644	    158.82355062	     25.27424581	    359.92377537	    162.53741237	     12.92129743	     14.77909194	      1.92978952	     28.51562277	    -27.13086061	    -45.00000000	    -45.00000000	  -4244.40827281	  -1344.32019920	     17.93919933	   -179.99999979	      0.22286012	    180.62997571	     11.70841070	    -16.24316665
      9.77000000	    -37.22116474	     -9.18506290	     16.49983984	    -69.08341351	    814.75754760	    -39.83792857	     23.17534939	    -45.00000000	     34.22205319	    -45.00000000	    -44.30706485	  -2616.85750265	   -465.29305380	    159.00733710	     24.98132131	    359.83800615	    161.86141787	     12.91787920	     14.75255093	      2.13592828	     28.53176864	    -27.32141013	    -45.00000000	    -45.00000000	  -4244.63232526	  -1344.27077489	     17.65442005	   -179.99999979	     -0.07740440	    179.98323168	     11.47149902	    -16.36290353
      9.78000000	    -37.28583973	     -9.40858840	     16.55396537	    -70.25084575	    816.71318586	    -39.79265004	     23.30571518	    -45.00000000	     34.05203680	    -45.00000000	    -45.00000000	  -2617.05466307	   -465.33804341	    158.66190787	     24.65840692	    359.81571116	    160.95165653	     12.94417699	     14.81334522	      1.80353302	     28.62827391	    -27.21533838	    -45.00000000	    -45.00000000	  -4244.10268883	  -1344.18336972	     18.11848689	   -179.99999979	      0.08433800	    179.14383698	     11.68863223	    -16.26138726
      9.79000000	    -37.31543571	     -9.24930695	     16.23384662	    -71.35018482	    818.64967489	    -39.74688154	     23.14359504	    -45.00000000	     34.08040665	    -45.00000000	    -45.00000000	  -2617.07928617	   -465.25463377	    158.68503468	     24.48139630	    359.58504188	    160.21516341	     12.95810036	     14.83206086	      2.00464355	     28.61489233	    -27.35535212	    -45.00000000	    -45.00000000	  -4244.16436588	  -1344.06245967	     17.95510963	   -179.99999979	     -0.13240883	    178.38137242	     11.56653458	    -16.27773805
      9.80000000	    -37.41183955	     -8.63117871	     15.34794479	    -72.38340653	    820.56190931	    -39.70085829	     22.98043888	    -45.00000000	     34.42528927	    -45.00000000	    -43.60568527	  -2617.07730262	   -465.35127351	    158.81593595	     23.98259128	    359.70750689	    159.64093644	     12.94662323	     14.89194864	      1.98198201	     28.65362919	    -27.54911056	    -45.00000000	    -45.00000000	  -4244.27853085	  -1343.98191417	     18.05370419	   -179.99999979	     -0.39810854	    177.85970165	     11.32516283	    -16.46160371
      9.81000000	    -37.60592626	     -8.03457472	     14.54780485	    -73.35602356	    822.44946769	    -39.65441606	     22.75592002	    -45.00000000	     34.34281091	    -45.00000000	    -42.51467576	  -2617.11803562	   -465.50951274	    158.72852919	     23.79580713	    359.81395259	    159.11245028	     13.12607895	     14.83164460	      1.92565394	     28.67275990	    -27.79436420	    -45.00000000	    -45.00000000	  -4244.02774142	  -1343.80904338	     18.57390111	   -179.99999979	     -0.39174891	    177.30618242	     11.20375794	    -16.50309144
      9.82000000	    -37.67916008	     -7.56381204	     13.86372999	    -74.27041143	    824.31217352	    -39.60719499	     22.59741732	    -45.00000000	     34.45912039	    -45.00000000	    -41.75292397	  -2617.24032161	   -465.52690863	    158.68125024	     23.78052780	    359.64201150	    158.64337053	     13.13485783	     14.85387406	      2.19168134	     28.65739085	    -27.87129130	    -45.00000000	    -45.00000000	  -4244.16303859	  -1343.53635824	     18.61694784	   -179.99999979	     -0.67721776	    176.63001911	     11.01299527	    -16.53662635
